<svg width="16" height="16" viewBox="0 0 16 16" fill="none" xmlns="http://www.w3.org/2000/svg">
<g clip-path="url(#clip0_14_328)">
<path d="M7.42374 0.0189405C7.36324 0.0253155 7.17436 0.0476905 7.00774 0.0673155C6.33599 0.14394 5.57424 0.34569 4.90574 0.627315C2.48636 1.63819 0.665488 3.85607 0.163113 6.39994C0.0448633 7.00494 0.0161133 7.30219 0.0161133 7.99994C0.0161133 8.89932 0.105488 9.51994 0.342363 10.3042C1.11674 12.8704 3.13274 14.8832 5.70561 15.6606C6.47999 15.8944 7.10399 15.9838 7.99999 15.9838C8.89936 15.9838 9.51999 15.8944 10.3042 15.6576C12.8705 14.8832 14.8832 12.8672 15.6606 10.2943C15.8945 9.51994 15.9839 8.89594 15.9839 7.99994C15.9839 7.61907 15.9649 7.18407 15.9424 7.02382C15.6831 5.17432 14.9214 3.61907 13.6514 2.34857C12.3837 1.08782 10.835 0.32319 9.02374 0.0639405C8.77424 0.0286905 7.61899 -0.00355953 7.42374 0.0189405ZM4.81586 5.05894C4.98586 5.11019 5.06536 5.15819 5.18061 5.27332C5.40474 5.50082 5.45599 5.62544 5.45599 5.96769C5.45599 6.22407 5.44624 6.27194 5.36961 6.40619C5.22211 6.65569 4.87986 6.88619 4.64311 6.89244C4.47649 6.89594 4.48336 6.82219 4.66561 6.63032C4.90874 6.37744 4.94386 6.28157 4.94386 5.90369C4.94086 5.53907 4.89599 5.41444 4.72649 5.31194C4.58549 5.22556 4.43211 5.23194 4.20799 5.33732C3.62549 5.61607 2.99511 6.54394 2.74899 7.49457C2.42236 8.76169 3.00149 9.77582 3.95511 9.60294C4.23336 9.55169 4.75824 9.28319 4.98586 9.07169C5.17436 8.89932 5.17436 8.89594 5.19336 8.68169C5.23536 8.23332 5.55174 7.78557 5.97461 7.57757C6.16936 7.48132 6.21774 7.47207 6.47999 7.47207C6.72949 7.47207 6.78711 7.48482 6.90874 7.55169C7.29586 7.77294 7.21586 8.28794 6.79686 8.28794C6.55374 8.28794 6.42874 8.16294 6.60499 8.09619C6.77786 8.03219 6.71336 7.79194 6.51224 7.73769C6.27536 7.67669 6.00636 7.83682 5.83686 8.14394C5.63186 8.51519 5.62249 8.95694 5.81736 9.15819C6.00636 9.35982 6.24311 9.20019 6.42574 8.74207C6.52149 8.50869 6.65911 8.38369 6.81936 8.38369C6.95999 8.38369 6.98586 8.47019 6.92474 8.73282C6.83499 9.13907 6.89599 9.24457 7.14886 9.12007C7.23186 9.08144 7.36961 8.99219 7.45261 8.92819L7.60936 8.80319L7.71536 8.24944C7.83061 7.62882 7.87499 7.54532 8.11186 7.50094C8.33936 7.45894 8.39061 7.57119 8.30711 7.92619L8.26211 8.12494L8.42874 7.95494C8.82224 7.55169 9.30561 7.35344 9.47211 7.51994C9.56149 7.60932 9.55174 7.72157 9.42386 8.11807C9.36324 8.30707 9.27974 8.60494 9.24174 8.77432C9.18411 9.03019 9.18061 9.09119 9.21299 9.13282C9.31549 9.25432 9.62886 9.12932 9.90724 8.85732L10.0704 8.69769L10.0899 8.34219C10.1089 7.93257 10.147 7.78557 10.2559 7.65419C10.3584 7.53269 10.544 7.44332 10.6431 7.46869C10.7422 7.49457 10.7422 7.59032 10.6529 7.87207C10.5279 8.25919 10.541 9.15182 10.669 9.15182C10.7202 9.15182 10.9824 8.87682 11.149 8.64644L11.2735 8.47644L11.1744 8.37444C11.0015 8.19194 10.96 8.07369 10.96 7.77582C10.96 7.55857 10.9761 7.47844 11.0302 7.37244C11.1201 7.20644 11.2607 7.08494 11.4272 7.03657C11.603 6.98232 11.8207 7.07169 11.9101 7.23182C12 7.39494 11.9776 7.75969 11.8622 8.00969L11.7792 8.19182H11.8911C12.0449 8.19182 12.1055 8.15369 12.3809 7.89444C12.5249 7.75681 12.6914 7.63819 12.8159 7.58057C13.3056 7.35057 13.8819 7.46869 13.9775 7.82069C14.0575 8.10244 13.8819 8.30069 13.5742 8.27819C13.3535 8.26219 13.312 8.20444 13.44 8.09619C13.6704 7.90369 13.44 7.65769 13.1104 7.74707C12.9311 7.79532 12.7295 7.99657 12.6241 8.23044C12.4126 8.69769 12.5249 9.24794 12.8286 9.24794C12.9502 9.24794 13.165 9.00782 13.248 8.77432C13.3471 8.50532 13.5551 8.33594 13.7119 8.39682C13.7984 8.42869 13.8047 8.51507 13.7505 8.78707C13.6895 9.08494 13.6801 9.36332 13.728 9.49119C13.7471 9.53894 13.8047 9.62882 13.8594 9.68944C13.9614 9.80457 13.9649 9.84619 13.8784 9.90082C13.8369 9.92957 13.7821 9.91694 13.648 9.84332C13.4624 9.74707 13.3022 9.57419 13.2446 9.41107L13.2095 9.31532L13.0815 9.41107C13.0077 9.46232 12.8926 9.51994 12.8256 9.53894C12.56 9.60932 12.2334 9.42719 12.0801 9.12007C12.019 9.00132 12 8.65282 12.0449 8.51844C12.0704 8.44469 12.0704 8.44469 11.9677 8.49594C11.9136 8.52482 11.7984 8.55657 11.709 8.56632C11.5615 8.58257 11.539 8.59857 11.3921 8.78407C11.1841 9.04282 10.8159 9.39207 10.6655 9.46582C10.3457 9.62544 10.2402 9.58057 10.1567 9.25082L10.0991 9.03019L9.96136 9.15182C9.78561 9.30557 9.43361 9.49119 9.23186 9.53607C9.03999 9.57757 8.83499 9.51657 8.75186 9.38857C8.62749 9.19669 8.66899 8.79044 8.86711 8.24307C9.01411 7.83682 8.90874 7.83057 8.53761 8.21769C8.26224 8.50869 8.14399 8.71669 8.06736 9.03994C7.98736 9.37594 7.89111 9.49744 7.67386 9.54869C7.54249 9.57757 7.48136 9.49744 7.50736 9.32169L7.52636 9.18057L7.40474 9.26407C7.23186 9.38232 7.01411 9.49119 6.86374 9.53269C6.71336 9.57419 6.51511 9.52969 6.46724 9.44619C6.38086 9.29932 6.38086 9.29932 6.24661 9.40469C5.95511 9.64157 5.53911 9.57419 5.32811 9.26069L5.26061 9.16157L5.04974 9.35682C4.44136 9.91357 3.68011 10.1631 3.11674 9.99019C2.39986 9.77294 2.00336 9.15819 2.00974 8.27194C2.01274 7.38232 2.40624 6.44482 3.06886 5.75044C3.44336 5.35982 3.79536 5.12932 4.15386 5.04294C4.41261 4.97894 4.56986 4.98219 4.81586 5.05894Z" fill="#00C4CC"/>
<path d="M11.3023 7.33432C11.2319 7.40457 11.2578 7.68632 11.3473 7.86557C11.3921 7.95832 11.44 8.03207 11.456 8.03207C11.4688 8.03207 11.4975 7.95832 11.52 7.86845C11.6 7.53595 11.456 7.18044 11.3023 7.33432Z" fill="#00C4CC"/>
</g>
<defs>
<clipPath id="clip0_14_328">
<rect width="16" height="16" fill="white"/>
</clipPath>
</defs>
</svg>
