<svg width="24" height="24" viewBox="0 0 24 24" fill="none" xmlns="http://www.w3.org/2000/svg">
<path d="M8.50001 5.1001L11.2 7.8001C11.6 8.2001 12.4 8.2001 12.8 7.8001L15.5 5.1001C16.2 4.4001 15.7 3.1001 14.7 3.1001H9.30001C8.30001 3.2001 7.80001 4.4001 8.50001 5.1001Z" stroke="#17191C" stroke-width="1.5" stroke-miterlimit="10" stroke-linecap="round" stroke-linejoin="round"/>
<path d="M8.50001 18.8999L11.2 16.1999C11.6 15.7999 12.4 15.7999 12.8 16.1999L15.5 18.8999C16.2 19.5999 15.7 20.8999 14.7 20.8999H9.30001C8.30001 20.7999 7.80001 19.5999 8.50001 18.8999Z" stroke="#17191C" stroke-width="1.5" stroke-miterlimit="10" stroke-linecap="round" stroke-linejoin="round"/>
<path d="M2.20001 11.5001L4.40001 8.00012C4.70001 7.40012 5.50001 7.30012 6.00001 7.80012L9.50001 11.3001C9.90001 11.7001 9.90001 12.3001 9.50001 12.7001L6.00001 16.2001C5.50001 16.7001 4.80001 16.6001 4.40001 16.0001L2.20001 12.5001C1.90001 12.2001 1.90001 11.8001 2.20001 11.5001Z" stroke="#17191C" stroke-width="1.5" stroke-miterlimit="10" stroke-linecap="round" stroke-linejoin="round"/>
<path d="M21.8 11.5L19.6 8.00004C19.3 7.50004 18.5 7.40004 18 7.80004L14.5 11.3C14.1 11.7 14.1 12.3 14.5 12.7L18 16.2C18.5 16.7 19.2 16.6 19.6 16L21.8 12.5C22.1 12.2 22.1 11.8 21.8 11.5Z" stroke="#17191C" stroke-width="1.5" stroke-miterlimit="10" stroke-linecap="round" stroke-linejoin="round"/>
</svg>
