<svg width="24" height="24" viewBox="0 0 24 24" fill="none" xmlns="http://www.w3.org/2000/svg">
<path d="M10.45 3.05006L6.71002 7.71006C5.86002 8.77006 6.16002 10.1301 7.37002 10.7301L11.1 12.6001C11.59 12.8401 12.39 12.8401 12.88 12.6001L16.61 10.7301C17.82 10.1201 18.12 8.76006 17.27 7.71006L13.54 3.05006C12.7 1.98006 11.3 1.98006 10.45 3.05006Z" stroke="#17191C" stroke-width="1.5" stroke-miterlimit="10" stroke-linecap="round" stroke-linejoin="round"/>
<path d="M12 2.30005V7.56005" stroke="#17191C" stroke-width="1.5" stroke-miterlimit="10" stroke-linecap="round" stroke-linejoin="round"/>
<path d="M7.80005 10.7101L12 7.56006L16.2 10.7101" stroke="#17191C" stroke-width="1.5" stroke-miterlimit="10" stroke-linecap="round" stroke-linejoin="round"/>
<path d="M8.77005 14.4301L10.3801 15.1501C11.4101 15.6101 12.5901 15.6101 13.6301 15.1501L15.24 14.4301C16.68 13.7901 18.01 15.5301 17.01 16.7501L13.5501 20.9801C12.7001 22.0201 11.31 22.0201 10.45 20.9801L7.00005 16.7501C5.99005 15.5301 7.32005 13.7901 8.77005 14.4301Z" stroke="#17191C" stroke-width="1.5" stroke-miterlimit="10" stroke-linecap="round" stroke-linejoin="round"/>
</svg>
