<svg width="16" height="16" viewBox="0 0 16 16" fill="none" xmlns="http://www.w3.org/2000/svg">
<g clip-path="url(#clip0_15_164)">
<path d="M13.3438 0.375H2.65625C1.18924 0.375 0 1.56424 0 3.03125V13.3188C0 14.7858 1.18924 15.975 2.65625 15.975H13.3438C14.8108 15.975 16 14.7858 16 13.3188V3.03125C16 1.56424 14.8108 0.375 13.3438 0.375Z" fill="#330000"/>
<path d="M7.75338 9.73681H5.27401L4.76951 11.3039C4.76264 11.3325 4.74602 11.3578 4.7225 11.3754C4.69899 11.393 4.67006 11.4019 4.64069 11.4005H3.38488C3.3133 11.4005 3.28826 11.3611 3.30976 11.2824L5.45644 5.1C5.4779 5.03563 5.49936 4.96229 5.52082 4.88C5.54894 4.73675 5.56332 4.59125 5.56376 4.44531C5.56229 4.43511 5.56323 4.4247 5.56649 4.41491C5.56975 4.40513 5.57524 4.39624 5.58253 4.38894C5.58981 4.38165 5.5987 4.37615 5.60848 4.37288C5.61826 4.36962 5.62867 4.36867 5.63888 4.37013H7.34551C7.39551 4.37013 7.42413 4.38804 7.43138 4.42388L9.86782 11.2931C9.88928 11.3648 9.86782 11.4006 9.80344 11.4005H8.40807C8.38411 11.4031 8.36002 11.3969 8.34028 11.3831C8.32054 11.3693 8.30649 11.3488 8.30076 11.3254L7.75338 9.73681ZM5.66038 8.38444H7.35626L7.33207 8.30463L7.29326 8.17825L7.26557 8.0895L7.22138 7.94975L7.12744 7.65556L7.04482 7.39475L6.83026 6.71538C6.77685 6.54649 6.7256 6.37694 6.67651 6.20675L6.63726 6.06863L6.59138 5.90531L6.52138 5.65219L6.50826 5.6045H6.49757C6.44385 5.86213 6.37845 6.11719 6.30157 6.36888L6.14232 6.88113L6.05469 7.16413L5.96626 7.45063C5.9503 7.50238 5.93436 7.55354 5.91844 7.60413L5.87094 7.754L5.82369 7.90038L5.77669 8.04313L5.72994 8.18231C5.71444 8.22815 5.69896 8.27336 5.68351 8.31794L5.66038 8.38444ZM11.3167 5.50788C11.2072 5.51226 11.0981 5.49349 10.9963 5.4528C10.8946 5.41211 10.8026 5.35042 10.7264 5.27175C10.6504 5.18963 10.5914 5.09331 10.5527 4.98832C10.514 4.88333 10.4964 4.77174 10.5009 4.65994C10.4971 4.54926 10.5165 4.439 10.5582 4.33637C10.5998 4.23373 10.6626 4.14103 10.7424 4.06431C10.8965 3.91642 11.1017 3.83365 11.3153 3.83325L11.3381 3.8335C11.5958 3.8335 11.7979 3.91042 11.9446 4.06425C12.0187 4.14421 12.0762 4.23797 12.1139 4.34019C12.1517 4.4424 12.1689 4.55106 12.1646 4.65994C12.1692 4.77219 12.1511 4.88421 12.1114 4.98933C12.0718 5.09445 12.0114 5.19052 11.9339 5.27181C11.8556 5.34893 11.7627 5.40961 11.6607 5.45029C11.5586 5.49097 11.4495 5.51083 11.3396 5.50869L11.3167 5.50788ZM10.5761 11.2931V6.16263C10.576 6.09821 10.6047 6.066 10.6619 6.066H11.9822C12.0394 6.066 12.068 6.09821 12.0681 6.16263V11.2931C12.0681 11.3648 12.0394 11.4006 11.9822 11.4005H10.6727C10.6117 11.4005 10.5796 11.3684 10.5764 11.3041L10.5761 11.2931Z" fill="#FF9A00"/>
</g>
<defs>
<clipPath id="clip0_15_164">
<rect width="16" height="15.625" fill="white" transform="translate(0 0.375)"/>
</clipPath>
</defs>
</svg>
