<svg width="24" height="24" viewBox="0 0 24 24" fill="none" xmlns="http://www.w3.org/2000/svg">
<path d="M5.48009 18.4898V15.5698C5.48009 14.5998 6.24009 13.7298 7.32009 13.7298C8.29009 13.7298 9.16008 14.4898 9.16008 15.5698V18.3798C9.16008 20.3298 7.54007 21.9498 5.59007 21.9498C3.64007 21.9498 2.02007 20.3198 2.02007 18.3798V12.2198C1.91007 6.59979 6.35008 2.0498 11.9701 2.0498C17.5901 2.0498 22.0201 6.5998 22.0201 12.1098V18.2698C22.0201 20.2198 20.4001 21.8398 18.4501 21.8398C16.5001 21.8398 14.8801 20.2198 14.8801 18.2698V15.4598C14.8801 14.4898 15.6401 13.6198 16.7201 13.6198C17.6901 13.6198 18.5601 14.3798 18.5601 15.4598V18.4898" stroke="#292D32" stroke-width="1.5" stroke-linecap="round" stroke-linejoin="round"/>
<path d="M15.53 9.11999H14.72C14.5 9.11999 14.29 9.25 14.19 9.44L13.44 10.94C13.33 11.16 13.02 11.16 12.91 10.94L11.07 7.27002C10.96 7.06002 10.66 7.05001 10.55 7.26001L9.70996 8.80999C9.60996 8.99999 9.40997 9.11999 9.18997 9.11999H8.45996" stroke="#292D32" stroke-width="1.5" stroke-linecap="round" stroke-linejoin="round"/>
</svg>
