<svg width="24" height="24" viewBox="0 0 24 24" fill="none" xmlns="http://www.w3.org/2000/svg">
<path d="M2 3H22" stroke="#292D32" stroke-width="1.5" stroke-miterlimit="10" stroke-linecap="round" stroke-linejoin="round"/>
<path d="M2 9H11" stroke="#292D32" stroke-width="1.5" stroke-miterlimit="10" stroke-linecap="round" stroke-linejoin="round"/>
<path d="M2 15H8" stroke="#292D32" stroke-width="1.5" stroke-miterlimit="10" stroke-linecap="round" stroke-linejoin="round"/>
<path d="M2 21H6" stroke="#292D32" stroke-width="1.5" stroke-miterlimit="10" stroke-linecap="round" stroke-linejoin="round"/>
<path d="M11.8402 22.0001C13.0441 22.0001 14.0202 21.0241 14.0202 19.8201C14.0202 18.6161 13.0441 17.6401 11.8402 17.6401C10.6362 17.6401 9.66016 18.6161 9.66016 19.8201C9.66016 21.0241 10.6362 22.0001 11.8402 22.0001Z" stroke="#292D32" stroke-width="1.5" stroke-linecap="round" stroke-linejoin="round"/>
<path d="M22 18.3699V9.85993C22 8.04993 20.86 7.79993 19.71 8.10993L15.36 9.29993C14.57 9.51993 14.02 10.1399 14.02 11.0499V12.57V13.59V19.82" stroke="#292D32" stroke-width="1.5" stroke-linecap="round" stroke-linejoin="round"/>
<path d="M19.8201 20.5499C21.0241 20.5499 22.0001 19.5739 22.0001 18.3699C22.0001 17.166 21.0241 16.1899 19.8201 16.1899C18.6162 16.1899 17.6401 17.166 17.6401 18.3699C17.6401 19.5739 18.6162 20.5499 19.8201 20.5499Z" stroke="#292D32" stroke-width="1.5" stroke-linecap="round" stroke-linejoin="round"/>
<path d="M14.02 13.5999L22 11.4199" stroke="#292D32" stroke-width="1.5" stroke-linecap="round" stroke-linejoin="round"/>
</svg>
