<svg width="24" height="24" viewBox="0 0 24 24" fill="none" xmlns="http://www.w3.org/2000/svg">
<path d="M7.59998 7.6001V3.9001C7.59998 3.1001 8.19998 2.4001 8.99998 2.2001C11 1.9001 13 1.9001 15 2.2001C15.8 2.3001 16.4 3.0001 16.4 3.9001V9.8001C16.4 11.0001 15.4 12.0001 14.2 12.0001H9.79998C8.59998 12.0001 7.59998 13.0001 7.59998 14.2001V20.1001C7.59998 20.9001 8.19998 21.6001 8.99998 21.8001C11 22.1001 13 22.1001 15 21.8001C15.8 21.7001 16.4 21.0001 16.4 20.1001V16.4001" stroke="#17191C" stroke-width="1.5" stroke-linecap="round" stroke-linejoin="round"/>
<path d="M16.4 7.6001H20.1C20.9 7.6001 21.6 8.2001 21.8 9.0001C22.1 11.0001 22.1 13.0001 21.8 15.0001C21.7 15.8001 21 16.4001 20.1 16.4001H12" stroke="#17191C" stroke-width="1.5" stroke-linecap="round" stroke-linejoin="round"/>
<path d="M12 7.6001H3.89998C3.09998 7.6001 2.39998 8.2001 2.19998 9.0001C1.89998 11.0001 1.89998 13.0001 2.19998 15.0001C2.29998 15.8001 2.99998 16.4001 3.89998 16.4001H7.59998" stroke="#17191C" stroke-width="1.5" stroke-linecap="round" stroke-linejoin="round"/>
<path d="M10 4.8501V4.8501" stroke="#17191C" stroke-width="1.5" stroke-linecap="round" stroke-linejoin="round"/>
<path d="M14 19.1499V19.1499" stroke="#17191C" stroke-width="1.5" stroke-linecap="round" stroke-linejoin="round"/>
</svg>
