<svg width="24" height="24" viewBox="0 0 24 24" fill="none" xmlns="http://www.w3.org/2000/svg">
<path d="M9 22H15C20 22 22 20 22 15V9C22 4 20 2 15 2H9C4 2 2 4 2 9V15C2 20 4 22 9 22Z" stroke="#292D32" stroke-width="1.5" stroke-linecap="round" stroke-linejoin="round"/>
<path d="M15.5701 18.5001V14.6001" stroke="#292D32" stroke-width="1.5" stroke-miterlimit="10" stroke-linecap="round" stroke-linejoin="round"/>
<path d="M15.5701 7.45V5.5" stroke="#292D32" stroke-width="1.5" stroke-miterlimit="10" stroke-linecap="round" stroke-linejoin="round"/>
<path d="M15.57 12.6502C17.0059 12.6502 18.17 11.4861 18.17 10.0502C18.17 8.61426 17.0059 7.4502 15.57 7.4502C14.134 7.4502 12.97 8.61426 12.97 10.0502C12.97 11.4861 14.134 12.6502 15.57 12.6502Z" stroke="#292D32" stroke-width="1.5" stroke-miterlimit="10" stroke-linecap="round" stroke-linejoin="round"/>
<path d="M8.42993 18.4998V16.5498" stroke="#292D32" stroke-width="1.5" stroke-miterlimit="10" stroke-linecap="round" stroke-linejoin="round"/>
<path d="M8.42993 9.4V5.5" stroke="#292D32" stroke-width="1.5" stroke-miterlimit="10" stroke-linecap="round" stroke-linejoin="round"/>
<path d="M8.43008 16.5501C9.86602 16.5501 11.0301 15.386 11.0301 13.9501C11.0301 12.5142 9.86602 11.3501 8.43008 11.3501C6.99414 11.3501 5.83008 12.5142 5.83008 13.9501C5.83008 15.386 6.99414 16.5501 8.43008 16.5501Z" stroke="#292D32" stroke-width="1.5" stroke-miterlimit="10" stroke-linecap="round" stroke-linejoin="round"/>
</svg>
