<svg width="16" height="16" viewBox="0 0 16 16" fill="none" xmlns="http://www.w3.org/2000/svg">
<g clip-path="url(#clip0_14_312)">
<path d="M12.25 0H3.75C1.67893 0 0 1.67893 0 3.75V12.25C0 14.3211 1.67893 16 3.75 16H12.25C14.3211 16 16 14.3211 16 12.25V3.75C16 1.67893 14.3211 0 12.25 0Z" fill="#001E36"/>
<path d="M3.6 11.1276V4.26761C3.6 4.22092 3.62 4.1943 3.66669 4.1943C3.78 4.1943 3.88669 4.1943 4.04 4.18761C4.2 4.18092 4.36669 4.18092 4.54669 4.1743C4.72669 4.16761 4.92 4.16761 5.12669 4.16092C5.33331 4.1543 5.53331 4.1543 5.73331 4.1543C6.28 4.1543 6.73331 4.22092 7.10669 4.36092C7.44134 4.4746 7.74649 4.66134 8 4.90761C8.21477 5.12317 8.38074 5.38235 8.48669 5.66761C8.58669 5.94761 8.64 6.2343 8.64 6.5343C8.64 7.10763 8.50667 7.58096 8.24 7.9543C7.97331 8.32761 7.6 8.60761 7.16669 8.76761C6.71331 8.9343 6.21331 8.9943 5.66669 8.9943C5.50669 8.9943 5.4 8.9943 5.33331 8.98761C5.26662 8.98092 5.17331 8.98092 5.04669 8.98092V11.1209C5.05331 11.1676 5.02 11.2076 4.97331 11.2143H3.68C3.62669 11.2143 3.6 11.1876 3.6 11.1276ZM5.05331 5.48092V7.72092C5.14669 7.72761 5.23331 7.7343 5.31331 7.7343H5.66669C5.92669 7.7343 6.18669 7.6943 6.43331 7.6143C6.64669 7.5543 6.83331 7.42761 6.98 7.26092C7.12 7.0943 7.18669 6.86761 7.18669 6.5743C7.19295 6.36595 7.13975 6.16014 7.03331 5.98092C6.92 5.80761 6.76 5.6743 6.56669 5.60092C6.32 5.50092 6.05331 5.46092 5.78 5.46761C5.60669 5.46761 5.45331 5.46761 5.32669 5.4743C5.19331 5.46761 5.1 5.4743 5.05331 5.48092ZM12.8 7.3143C12.6 7.20761 12.3867 7.1343 12.16 7.08761C11.9133 7.0343 11.6667 7.00092 11.4133 7.00092C11.28 6.9943 11.14 7.0143 11.0133 7.04761C10.9267 7.06761 10.8533 7.1143 10.8067 7.18092C10.7733 7.2343 10.7533 7.30092 10.7533 7.36092C10.7533 7.42092 10.78 7.48092 10.82 7.5343C10.88 7.60761 10.96 7.66761 11.0467 7.7143C11.2013 7.79432 11.3592 7.86772 11.52 7.9343C11.88 8.0543 12.2267 8.22092 12.5467 8.42092C12.7667 8.56092 12.9467 8.74761 13.0733 8.9743C13.18 9.18761 13.2333 9.42092 13.2267 9.66092C13.2333 9.9743 13.14 10.2876 12.9667 10.5476C12.7807 10.8137 12.5213 11.0199 12.22 11.1409C11.8933 11.2809 11.4933 11.3543 11.0133 11.3543C10.7067 11.3543 10.4067 11.3276 10.1067 11.2676C9.87155 11.227 9.64288 11.1553 9.42669 11.0543C9.38 11.0276 9.34669 10.9809 9.35331 10.9276V9.76761C9.35331 9.74761 9.36 9.72092 9.38 9.70761C9.4 9.6943 9.42 9.70092 9.44 9.7143C9.7 9.86761 9.97331 9.9743 10.2667 10.0409C10.52 10.1076 10.7867 10.1409 11.0533 10.1409C11.3067 10.1409 11.4867 10.1076 11.6067 10.0476C11.7133 10.0009 11.7867 9.88761 11.7867 9.76761C11.7867 9.6743 11.7333 9.58761 11.6267 9.50092C11.52 9.4143 11.3 9.3143 10.9733 9.18761C10.6382 9.0695 10.32 8.90813 10.0267 8.70761C9.81775 8.55874 9.64465 8.36515 9.52 8.14092C9.41331 7.92761 9.36 7.6943 9.36669 7.46092C9.36669 7.1743 9.44669 6.90092 9.59331 6.6543C9.76 6.38761 10.0067 6.1743 10.2933 6.04092C10.6067 5.88092 11 5.80761 11.4733 5.80761C11.7467 5.80761 12.0267 5.82761 12.3 5.86761C12.5 5.8943 12.6933 5.94761 12.8733 6.02092C12.9 6.02761 12.9267 6.0543 12.94 6.08092C12.9467 6.10761 12.9533 6.1343 12.9533 6.16092V7.24761C12.9533 7.2743 12.94 7.30092 12.92 7.3143C12.86 7.32761 12.8267 7.32761 12.8 7.3143Z" fill="#31A8FF"/>
</g>
<defs>
<clipPath id="clip0_14_312">
<rect width="16" height="16" fill="white"/>
</clipPath>
</defs>
</svg>
