<svg width="24" height="24" viewBox="0 0 24 24" fill="none" xmlns="http://www.w3.org/2000/svg">
<path d="M20 3.5H5.50001C5.20001 3.5 4.90001 3.6 4.70001 3.9L3.20001 5.9C2.70001 6.6 3.20001 7.5 4.00001 7.5H18.5C18.8 7.5 19.1 7.4 19.3 7.1L20.8 5.1C21.3 4.4 20.8 3.5 20 3.5Z" stroke="#17191C" stroke-width="1.5" stroke-miterlimit="10"/>
<path d="M4.00001 10H18.5C18.8 10 19.1 10.1 19.3 10.4L20.8 12.4C21.3 13.1 20.8 14 20 14H5.50001C5.20001 14 4.90001 13.9 4.70001 13.6L3.20001 11.6C2.70001 10.9 3.20001 10 4.00001 10Z" stroke="#17191C" stroke-width="1.5" stroke-miterlimit="10"/>
<path d="M20 16.5H5.50001C5.20001 16.5 4.90001 16.6 4.70001 16.9L3.20001 18.9C2.70001 19.6 3.20001 20.5 4.00001 20.5H18.5C18.8 20.5 19.1 20.4 19.3 20.1L20.8 18.1C21.3 17.4 20.8 16.5 20 16.5Z" stroke="#17191C" stroke-width="1.5" stroke-miterlimit="10"/>
</svg>
