<svg width="24" height="24" viewBox="0 0 24 24" fill="none" xmlns="http://www.w3.org/2000/svg">
<path d="M21.93 12.8598C21.91 13.0498 21.88 13.2298 21.83 13.4098C20.79 12.5298 19.44 11.9998 17.97 11.9998C14.66 11.9998 11.97 14.6898 11.97 17.9998C11.97 19.4698 12.5 20.8198 13.38 21.8598C13.2 21.9098 13.02 21.9398 12.83 21.9598C11.98 22.0398 11.11 21.9998 10.21 21.8498C6.09999 21.1498 2.78999 17.8198 2.10999 13.6998C0.97999 6.84977 6.81999 1.00978 13.67 2.13978C17.79 2.81978 21.12 6.12977 21.82 10.2398C21.97 11.1398 22.01 12.0098 21.93 12.8598Z" stroke="#292D32" stroke-width="1.5" stroke-linecap="round" stroke-linejoin="round"/>
<path d="M21.83 13.41C21.69 13.9 21.43 14.34 21.06 14.71L14.68 21.09C14.31 21.46 13.87 21.72 13.38 21.86C12.5 20.82 11.97 19.47 11.97 18C11.97 14.69 14.66 12 17.97 12C19.44 12 20.79 12.53 21.83 13.41Z" stroke="#292D32" stroke-width="1.5" stroke-linecap="round" stroke-linejoin="round"/>
</svg>
