<svg width="24" height="24" viewBox="0 0 24 24" fill="none" xmlns="http://www.w3.org/2000/svg">
<path d="M11.3 14.0002C13.1778 14.0002 14.7 12.478 14.7 10.6002C14.7 8.72243 13.1778 7.2002 11.3 7.2002C9.42226 7.2002 7.90002 8.72243 7.90002 10.6002C7.90002 12.478 9.42226 14.0002 11.3 14.0002Z" stroke="#17191C" stroke-width="1.5" stroke-miterlimit="10"/>
<path d="M15.1 14.7998L12.1 17.7998" stroke="#17191C" stroke-width="1.5" stroke-miterlimit="10" stroke-linecap="round" stroke-linejoin="round"/>
<path d="M12 22C17.5228 22 22 17.5228 22 12C22 6.47715 17.5228 2 12 2C6.47715 2 2 6.47715 2 12C2 17.5228 6.47715 22 12 22Z" stroke="#17191C" stroke-width="1.5" stroke-miterlimit="10" stroke-linecap="round" stroke-linejoin="round"/>
<path d="M16.5 7.3125V7.3125" stroke="#17191C" stroke-width="2" stroke-linecap="round" stroke-linejoin="round"/>
</svg>
