<svg width="24" height="24" viewBox="0 0 24 24" fill="none" xmlns="http://www.w3.org/2000/svg">
<path d="M16.9 16.9C19.6 14.2 19.6 9.7 16.9 7" stroke="#17191C" stroke-width="1.5" stroke-miterlimit="10" stroke-linecap="round" stroke-linejoin="round"/>
<path d="M7.10001 7.1001C4.40001 9.8001 4.40001 14.3001 7.10001 17.0001" stroke="#17191C" stroke-width="1.5" stroke-miterlimit="10" stroke-linecap="round" stroke-linejoin="round"/>
<path d="M9.70001 13.5998C9.70001 14.4998 10.4 15.1998 11.3 15.1998H13C13.7 15.1998 14.4 14.5998 14.4 13.7998C14.4 12.8998 14 12.5998 13.5 12.3998L10.7 11.3998C10 11.2998 9.70001 10.9998 9.70001 10.1998C9.70001 9.3998 10.3 8.7998 11.1 8.7998H12.9C13.8 8.7998 14.5 9.4998 14.5 10.3998" stroke="#17191C" stroke-width="1.5" stroke-linecap="round" stroke-linejoin="round"/>
<path d="M12 7.7998V16.1998" stroke="#17191C" stroke-width="1.5" stroke-linecap="round" stroke-linejoin="round"/>
<path d="M12 22C17.5228 22 22 17.5228 22 12C22 6.47715 17.5228 2 12 2C6.47715 2 2 6.47715 2 12C2 17.5228 6.47715 22 12 22Z" stroke="#17191C" stroke-width="1.5" stroke-miterlimit="10" stroke-linecap="round" stroke-linejoin="round"/>
</svg>
