<svg width="24" height="24" viewBox="0 0 24 24" fill="none" xmlns="http://www.w3.org/2000/svg">
<path fill-rule="evenodd" clip-rule="evenodd" d="M6 9.6998V12.4998C6 13.9998 7.3 15.2998 8.8 15.2998H12.5C13 15.2998 13.4 14.8998 13.4 14.3998V11.5998C13.4 10.0998 12.2 8.7998 10.6 8.7998H6.9C6.4 8.7998 6 9.1998 6 9.6998Z" stroke="#17191C" stroke-width="1.5" stroke-miterlimit="10"/>
<path fill-rule="evenodd" clip-rule="evenodd" d="M18 9.19971V14.7997L15.2 12.8997V11.0997L18 9.19971Z" stroke="#17191C" stroke-width="1.5" stroke-miterlimit="10" stroke-linecap="round" stroke-linejoin="round"/>
<path d="M12 22C17.5228 22 22 17.5228 22 12C22 6.47715 17.5228 2 12 2C6.47715 2 2 6.47715 2 12C2 17.5228 6.47715 22 12 22Z" stroke="#17191C" stroke-width="1.5" stroke-miterlimit="10"/>
</svg>
