<svg width="58" height="58" viewBox="0 0 58 58" fill="none" xmlns="http://www.w3.org/2000/svg">
<path d="M19.3333 53.1667H38.6667C48.3817 53.1667 50.1217 49.2758 50.6292 44.5392L52.4417 25.2058C53.0942 19.3092 51.4025 14.5 41.0833 14.5H16.9167C6.59749 14.5 4.90582 19.3092 5.55832 25.2058L7.37082 44.5392C7.87832 49.2758 9.61832 53.1667 19.3333 53.1667Z" stroke="#292D32" stroke-width="1.5" stroke-miterlimit="10" stroke-linecap="round" stroke-linejoin="round"/>
<path d="M19.3333 14.5002V12.5668C19.3333 8.28933 19.3333 4.8335 27.0667 4.8335H30.9333C38.6667 4.8335 38.6667 8.28933 38.6667 12.5668V14.5002" stroke="#292D32" stroke-width="1.5" stroke-miterlimit="10" stroke-linecap="round" stroke-linejoin="round"/>
<path d="M33.8333 31.4167V33.8333C33.8333 33.8575 33.8333 33.8575 33.8333 33.8817C33.8333 36.5158 33.8092 38.6667 29 38.6667C24.215 38.6667 24.1667 36.54 24.1667 33.9058V31.4167C24.1667 29 24.1667 29 26.5833 29H31.4167C33.8333 29 33.8333 29 33.8333 31.4167Z" stroke="#292D32" stroke-width="1.5" stroke-miterlimit="10" stroke-linecap="round" stroke-linejoin="round"/>
<path d="M52.3208 26.5835C46.7383 30.6435 40.3583 33.0602 33.8333 33.8818" stroke="#292D32" stroke-width="1.5" stroke-miterlimit="10" stroke-linecap="round" stroke-linejoin="round"/>
<path d="M6.33167 27.2358C11.7692 30.9575 17.9075 33.205 24.1667 33.9058" stroke="#292D32" stroke-width="1.5" stroke-miterlimit="10" stroke-linecap="round" stroke-linejoin="round"/>
</svg>
