<svg width="24" height="24" viewBox="0 0 24 24" fill="none" xmlns="http://www.w3.org/2000/svg">
<path d="M8.59009 15.5599L15.2101 9.4899C15.4901 9.2399 15.4801 8.83992 15.1901 8.59992L13.1301 6.87992C12.5901 6.42992 12.1601 6.63991 12.1601 7.33991V16.6699C12.1601 17.3699 12.6001 17.5699 13.1301 17.1299L15.1901 15.4099C15.4801 15.1699 15.4901 14.7699 15.2101 14.5199L8.59009 8.44992" stroke="#292D32" stroke-width="1.5" stroke-miterlimit="10" stroke-linecap="round" stroke-linejoin="round"/>
<path d="M15 22H9C6 22 4 20 4 17V7C4 4 6 2 9 2H15C18 2 20 4 20 7V17C20 20 18 22 15 22Z" stroke="#292D32" stroke-width="1.5" stroke-miterlimit="10" stroke-linecap="round" stroke-linejoin="round"/>
</svg>
