<svg width="24" height="24" viewBox="0 0 24 24" fill="none" xmlns="http://www.w3.org/2000/svg">
<path d="M17 3H7C5.3 3 4 4.3 4 6V6.8C4 7.6 3.9 8.3 3.6 9.1C3.3 10.2 2.2 11 1 11V13C2.2 13 3.3 13.8 3.6 14.9C3.9 15.6 4 16.4 4 17.2V18C4 19.7 5.3 21 7 21H17C18.7 21 20 19.7 20 18V17.2C20 16.4 20.1 15.7 20.4 14.9C20.8 13.8 21.8 13 23 13V11C21.8 11 20.7 10.2 20.4 9.1C20.1 8.4 20 7.6 20 6.8V6C20 4.3 18.7 3 17 3Z" stroke="#17191C" stroke-width="1.5" stroke-miterlimit="10" stroke-linejoin="round"/>
<path d="M9.79999 11.9998H12.7C13.9 11.9998 14.8 12.8998 14.8 14.0998C14.8 15.2998 13.9 16.1998 12.7 16.1998H9.79999V7.7998H12.7C13.9 7.7998 14.8 8.6998 14.8 9.8998C14.8 11.0998 13.9 11.9998 12.7 11.9998H9.79999Z" stroke="#17191C" stroke-width="1.5" stroke-miterlimit="10" stroke-linecap="round" stroke-linejoin="round"/>
</svg>
