<svg width="24" height="24" viewBox="0 0 24 24" fill="none" xmlns="http://www.w3.org/2000/svg">
<path d="M21.81 3.94012C20.27 7.78012 16.41 13.0001 13.18 15.5901L11.21 17.1701C10.96 17.3501 10.71 17.5101 10.43 17.6201C10.43 17.4401 10.42 17.2401 10.39 17.0501C10.28 16.2101 9.90002 15.4301 9.23002 14.7601C8.55002 14.0801 7.72002 13.6801 6.87002 13.5701C6.67002 13.5601 6.47002 13.5401 6.27002 13.5601C6.38002 13.2501 6.55002 12.9601 6.76002 12.7201L8.32002 10.7501C10.9 7.52012 16.14 3.64012 19.97 2.11012C20.56 1.89012 21.13 2.05012 21.49 2.42012C21.87 2.79012 22.05 3.36012 21.81 3.94012Z" stroke="#292D32" stroke-width="1.5" stroke-linecap="round" stroke-linejoin="round"/>
<path d="M10.4298 17.6201C10.4298 18.7201 10.0098 19.77 9.21979 20.57C8.60979 21.18 7.77979 21.6001 6.78979 21.7301L4.32979 22.0001C2.98979 22.1501 1.83979 21.01 1.99979 19.65L2.26979 17.1901C2.50979 15.0001 4.33979 13.6001 6.27979 13.5601C6.47979 13.5501 6.68979 13.56 6.87979 13.57C7.72979 13.68 8.55979 14.0701 9.23979 14.7601C9.90979 15.4301 10.2898 16.21 10.3998 17.05C10.4098 17.24 10.4298 17.4301 10.4298 17.6201Z" stroke="#292D32" stroke-width="1.5" stroke-linecap="round" stroke-linejoin="round"/>
<path d="M14.2398 14.47C14.2398 11.86 12.1198 9.73999 9.50977 9.73999" stroke="#292D32" stroke-width="1.5" stroke-linecap="round" stroke-linejoin="round"/>
</svg>
