<svg width="24" height="24" viewBox="0 0 24 24" fill="none" xmlns="http://www.w3.org/2000/svg">
<path d="M8.9398 16.9304L6.10979 14.1003C5.16979 13.1603 5.16979 12.2103 6.10979 11.2703L10.8298 6.55029L16.0198 11.7403C16.2798 12.0003 16.2798 12.4204 16.0198 12.6804L11.7698 16.9304C10.8298 17.8704 9.8798 17.8704 8.9398 16.9304Z" stroke="#292D32" stroke-width="1.5" stroke-miterlimit="10" stroke-linecap="round" stroke-linejoin="round"/>
<path d="M9.87988 5.6001L10.8299 6.5401" stroke="#292D32" stroke-width="1.5" stroke-miterlimit="10" stroke-linecap="round" stroke-linejoin="round"/>
<path d="M5.43994 12.6399L16.1299 12.1699" stroke="#292D32" stroke-width="1.5" stroke-miterlimit="10" stroke-linecap="round" stroke-linejoin="round"/>
<path d="M17.2997 14.8101C17.2997 14.8101 15.9897 16.23 15.9897 17.1C15.9897 17.82 16.5797 18.41 17.2997 18.41C18.0197 18.41 18.6097 17.82 18.6097 17.1C18.5997 16.23 17.2997 14.8101 17.2997 14.8101Z" stroke="#292D32" stroke-width="1.5" stroke-linecap="round" stroke-linejoin="round"/>
<path d="M22 15V9C22 4 20 2 15 2H9C4 2 2 4 2 9V15C2 20 4 22 9 22H15C20 22 22 20 22 15Z" stroke="#292D32" stroke-width="1.5" stroke-linecap="round" stroke-linejoin="round"/>
</svg>
