<svg width="24" height="24" viewBox="0 0 24 24" fill="none" xmlns="http://www.w3.org/2000/svg">
<path d="M6.9 9.1L11.7 7C11.9 6.9 12.1 6.9 12.4 7L17.2 9.1C17.6 9.3 18 8.8 17.7 8.4L12.7 2.3C12.4 1.9 11.8 1.9 11.5 2.3L6.5 8.4C6.1 8.8 6.5 9.3 6.9 9.1Z" stroke="#17191C" stroke-width="1.5" stroke-miterlimit="10" stroke-linecap="round" stroke-linejoin="round"/>
<path d="M6.9 14.9L11.7 17C11.9 17.1 12.1 17.1 12.4 17L17.2 14.9C17.6 14.7 18 15.2 17.7 15.6L12.7 21.7C12.4 22.1 11.8 22.1 11.5 21.7L6.5 15.6C6.1 15.2 6.5 14.7 6.9 14.9Z" stroke="#17191C" stroke-width="1.5" stroke-miterlimit="10" stroke-linecap="round" stroke-linejoin="round"/>
<path d="M12 9.3999L6.8 11.9999L12 14.5999L17.2 11.9999L12 9.3999Z" stroke="#17191C" stroke-width="1.5" stroke-miterlimit="10" stroke-linecap="round" stroke-linejoin="round"/>
</svg>
