<svg width="24" height="24" viewBox="0 0 24 24" fill="none" xmlns="http://www.w3.org/2000/svg">
<path d="M12 2H8.7C6.8 2 5.3 3.5 5.3 5.3C5.3 7.1 6.8 8.6 8.6 8.6H12V2Z" stroke="#17191C" stroke-width="1.5" stroke-miterlimit="10"/>
<path d="M12 8.7002H8.7C6.9 8.7002 5.4 10.2002 5.4 12.0002C5.4 13.8002 6.9 15.3002 8.7 15.3002H12V8.7002Z" stroke="#17191C" stroke-width="1.5" stroke-miterlimit="10"/>
<path d="M12 15.2998H8.7C6.9 15.2998 5.4 16.7998 5.4 18.5998C5.4 20.3998 6.9 21.8998 8.7 21.8998C10.5 21.8998 12 20.3998 12 18.5998V15.2998Z" stroke="#17191C" stroke-width="1.5" stroke-miterlimit="10"/>
<path d="M12 2H15.3C17.1 2 18.6 3.5 18.6 5.3C18.6 7.1 17.1 8.6 15.3 8.6H12V2Z" stroke="#17191C" stroke-width="1.5" stroke-miterlimit="10"/>
<path d="M15.3 8.7002C17.1 8.7002 18.6 10.2002 18.6 12.0002C18.6 13.8002 17.1 15.3002 15.3 15.3002C13.5 15.3002 12 13.8002 12 12.0002C12 10.2002 13.5 8.7002 15.3 8.7002Z" stroke="#17191C" stroke-width="1.5" stroke-miterlimit="10"/>
</svg>
