<svg width="24" height="24" viewBox="0 0 24 24" fill="none" xmlns="http://www.w3.org/2000/svg">
<path d="M13.41 20.7898L12.0001 21.6998C10.6901 22.5098 8.87006 21.5998 8.87006 19.9798V14.6298C8.87006 13.9198 8.47006 13.0098 8.06006 12.5098L4.22003 8.46976C3.71003 7.95976 3.31006 7.05977 3.31006 6.44977V4.12976C3.31006 2.91976 4.22008 2.00977 5.33008 2.00977H18.67C19.78 2.00977 20.6901 2.91975 20.6901 4.02975V6.24976C20.6901 7.05976 20.1801 8.06976 19.6801 8.56976" stroke="#292D32" stroke-width="1.5" stroke-miterlimit="10" stroke-linecap="round" stroke-linejoin="round"/>
<path d="M17.0799 11.8899L13.5399 15.4299C13.3999 15.5699 13.2699 15.8299 13.2399 16.0199L13.0499 17.3699C12.9799 17.8599 13.3199 18.1999 13.8099 18.1299L15.1599 17.9399C15.3499 17.9099 15.6199 17.7799 15.7499 17.6399L19.2899 14.0999C19.8999 13.4899 20.1899 12.7799 19.2899 11.8799C18.3999 10.9899 17.6899 11.2799 17.0799 11.8899Z" stroke="#292D32" stroke-width="1.5" stroke-miterlimit="10" stroke-linecap="round" stroke-linejoin="round"/>
<path d="M16.5801 12.3901C16.8801 13.4701 17.72 14.3101 18.8 14.6101" stroke="#292D32" stroke-width="1.5" stroke-miterlimit="10" stroke-linecap="round" stroke-linejoin="round"/>
</svg>
