<svg width="24" height="24" viewBox="0 0 24 24" fill="none" xmlns="http://www.w3.org/2000/svg">
<path d="M22 5.7C22 7.4 21.2 9 19.7 9.9C18.4 10.7 16.5 11.5 14 11.8V5.7C14 3.7 15.7 2 17.7 2H18.2C20.3 2 22 3.7 22 5.7Z" stroke="#17191C" stroke-width="1.5" stroke-miterlimit="10"/>
<path d="M22 8V18.3C22 20.4 20.3 22 18.3 22H17.8C15.7 22 14.1 20.3 14.1 18.3V11.9C19.6 11.2 22 8 22 8Z" stroke="#17191C" stroke-width="1.5" stroke-miterlimit="10"/>
<path d="M2 18.3002C2 16.6002 2.8 15.0002 4.3 14.1002C5.6 13.3002 7.5 12.5002 10 12.2002V18.3002C10 20.4002 8.3 22.0002 6.3 22.0002H5.7C3.7 22.0002 2 20.3002 2 18.3002Z" stroke="#17191C" stroke-width="1.5" stroke-miterlimit="10"/>
<path d="M2 16V5.7C2 3.7 3.7 2 5.7 2H6.2C8.3 2 10 3.7 10 5.7V12.1C4.4 12.8 2 16 2 16Z" stroke="#17191C" stroke-width="1.5" stroke-miterlimit="10"/>
<path d="M10 12.0999C10.6 11.9999 11.3 11.9999 12 11.9999C12.7 11.9999 13.4 11.9999 14 11.8999" stroke="#17191C" stroke-width="1.5" stroke-miterlimit="10"/>
</svg>
