<svg width="24" height="24" viewBox="0 0 24 24" fill="none" xmlns="http://www.w3.org/2000/svg">
<path d="M11 2.5998L4.5 6.39981C3.9 6.79981 3.5 7.39981 3.5 8.09981V15.7998C3.5 16.4998 3.9 17.1998 4.5 17.4998L11 21.2998C11.6 21.6998 12.4 21.6998 13 21.2998L19.5 17.4998C20.1 17.0998 20.5 16.4998 20.5 15.7998V8.09981C20.5 7.39981 20.1 6.69981 19.5 6.39981L13 2.5998C12.4 2.1998 11.6 2.1998 11 2.5998Z" stroke="#17191C" stroke-width="1.5" stroke-miterlimit="10" stroke-linecap="round" stroke-linejoin="round"/>
<path d="M17 9L12 6L7 9L17 15L12 18L7 15" stroke="#17191C" stroke-width="1.5" stroke-miterlimit="10" stroke-linecap="round" stroke-linejoin="round"/>
<path d="M11.5 10L9.5 12" stroke="#17191C" stroke-width="1.5" stroke-miterlimit="10" stroke-linecap="round" stroke-linejoin="round"/>
<path d="M14.5 12L12.5 14" stroke="#17191C" stroke-width="1.5" stroke-miterlimit="10" stroke-linecap="round" stroke-linejoin="round"/>
</svg>
