<svg width="24" height="24" viewBox="0 0 24 24" fill="none" xmlns="http://www.w3.org/2000/svg">
<path d="M11 2.5998L6 5.3998C5.4 5.7998 5 6.3998 5 7.0998V15.9998C5 16.5998 5.3 17.2998 5.8 17.5998L10.8 21.1998C11.5 21.6998 12.4 21.6998 13.1 21.1998L18.1 17.5998C18.6 17.1998 18.9 16.5998 18.9 15.9998V7.1998C18.9 6.4998 18.5 5.7998 17.9 5.4998L12.9 2.5998C12.4 2.1998 11.6 2.1998 11 2.5998Z" stroke="#17191C" stroke-width="1.5" stroke-miterlimit="10" stroke-linecap="round" stroke-linejoin="round"/>
<path d="M12 3L10 12L11.8 21.2" stroke="#17191C" stroke-width="1.5" stroke-miterlimit="10" stroke-linecap="round" stroke-linejoin="round"/>
<path d="M18.2 16.8998L10 11.9998L18.5 7.2998" stroke="#17191C" stroke-width="1.5" stroke-miterlimit="10" stroke-linecap="round" stroke-linejoin="round"/>
</svg>
