<svg width="25" height="24" viewBox="0 0 25 24" fill="none" xmlns="http://www.w3.org/2000/svg">
<g clip-path="url(#clip0_14_250)">
<path d="M20.496 0H4.08C1.82668 0 0 1.82668 0 4.08V19.8816C0 22.1349 1.82668 23.9616 4.08 23.9616H20.496C22.7493 23.9616 24.576 22.1349 24.576 19.8816V4.08C24.576 1.82668 22.7493 0 20.496 0Z" fill="#49021F"/>
<path d="M8.92504 6.2686V16.7704C8.92504 16.8804 8.87557 16.9354 8.77662 16.9354H6.78174C6.69368 16.9354 6.64974 16.8804 6.64993 16.7704V6.2686C6.64993 6.18073 6.69937 6.13676 6.79825 6.1367H8.79313C8.80991 6.13432 8.827 6.13563 8.84322 6.14053C8.85944 6.14543 8.87439 6.1538 8.88705 6.16507C8.8997 6.17633 8.90975 6.19022 8.91649 6.20576C8.92324 6.2213 8.92651 6.23813 8.92609 6.25507L8.92504 6.2686ZM14.9333 17.0991L14.8271 17.1002C14.0683 17.1118 13.3164 16.9541 12.6262 16.6386C11.9832 16.341 11.4457 15.8552 11.0848 15.2455C10.7201 14.6398 10.5333 13.8849 10.5245 12.9808L10.5242 12.9127C10.518 12.156 10.7114 11.4111 11.0848 10.753C11.4592 10.1006 12.0051 9.56327 12.6634 9.19939L12.7169 9.1702C13.4312 8.77455 14.294 8.57673 15.3053 8.57673L15.3266 8.57683L15.3739 8.57788L15.4275 8.57999L15.4873 8.58307L15.5533 8.58719L15.6254 8.59247L15.7883 8.60582L15.8328 8.60966V5.36198C15.8328 5.28511 15.8658 5.24662 15.9317 5.24649H18.009C18.0225 5.24456 18.0362 5.24579 18.049 5.25008C18.0619 5.25437 18.0736 5.2616 18.0832 5.27119C18.0928 5.28079 18.1 5.29249 18.1043 5.30536C18.1086 5.31824 18.1098 5.33194 18.1079 5.34537V15.0889C18.1086 15.2925 18.1168 15.4959 18.1327 15.6989L18.1482 15.9114L18.162 16.1093L18.1739 16.2923C18.1759 16.3266 18.1676 16.3607 18.1499 16.3901C18.1323 16.4195 18.1062 16.4429 18.075 16.4573C17.5391 16.6807 16.9809 16.8465 16.4099 16.9518C15.9227 17.0418 15.4288 17.0911 14.9334 17.0991M15.8329 15.0559V10.5551C15.7438 10.531 15.6528 10.5144 15.5609 10.5057C15.4486 10.4943 15.3358 10.4888 15.2229 10.4891C14.8228 10.4852 14.4275 10.5755 14.0689 10.753C13.7197 10.9267 13.4215 11.188 13.2034 11.5114C12.978 11.841 12.8653 12.2752 12.8654 12.8138C12.8574 13.1731 12.9161 13.5309 13.0384 13.8688C13.1381 14.1412 13.2956 14.3887 13.5001 14.5943C13.6959 14.7835 13.9329 14.9246 14.1926 15.0064C14.4668 15.0952 14.7534 15.1397 15.0416 15.1384C15.1954 15.1384 15.3383 15.1329 15.4702 15.1218C15.5755 15.1139 15.6799 15.0965 15.782 15.07L15.8329 15.0559Z" fill="#FF3366"/>
</g>
<defs>
<clipPath id="clip0_14_250">
<rect width="24.576" height="24" fill="white"/>
</clipPath>
</defs>
</svg>
