<svg width="24" height="24" viewBox="0 0 24 24" fill="none" xmlns="http://www.w3.org/2000/svg">
<path d="M15.0301 10.7702L20.6901 6.98022C21.2601 6.60022 21.4101 5.82022 21.0301 5.26022L19.2101 2.5502C18.8301 1.9802 18.0501 1.8302 17.4901 2.2102L11.8301 6.00021L15.0301 10.7702Z" stroke="#292D32" stroke-width="1.5" stroke-linecap="round" stroke-linejoin="round"/>
<path d="M12.1739 6.47932L7.39624 9.6792L9.95614 13.5013L14.7338 10.3015L12.1739 6.47932Z" stroke="#292D32" stroke-width="1.5" stroke-linecap="round" stroke-linejoin="round"/>
<path d="M5.83004 15.9004L9.78004 13.2604L7.54004 9.92041L3.59004 12.5604C3.13004 12.8704 3.01004 13.4904 3.32004 13.9504L4.45004 15.6304C4.75004 16.0804 5.37004 16.2004 5.83004 15.9004Z" stroke="#292D32" stroke-width="1.5" stroke-linecap="round" stroke-linejoin="round"/>
<path d="M12.0501 12.2002L7.56006 22.0002" stroke="#292D32" stroke-width="1.5" stroke-linecap="round" stroke-linejoin="round"/>
<path d="M12 12.2002L16.44 22.0002" stroke="#292D32" stroke-width="1.5" stroke-linecap="round" stroke-linejoin="round"/>
</svg>
