<svg width="24" height="24" viewBox="0 0 24 24" fill="none" xmlns="http://www.w3.org/2000/svg">
<path d="M22 10V9C22 4 20 2 15 2H9C4 2 2 4 2 9V15C2 20 4 22 9 22H11" stroke="#292D32" stroke-width="1.5" stroke-linecap="round" stroke-linejoin="round"/>
<path d="M15.2701 21.9996C16.0654 21.9996 16.7101 21.3549 16.7101 20.5596C16.7101 19.7643 16.0654 19.1196 15.2701 19.1196C14.4748 19.1196 13.8301 19.7643 13.8301 20.5596C13.8301 21.3549 14.4748 21.9996 15.2701 21.9996Z" stroke="#292D32" stroke-width="1.5" stroke-linecap="round" stroke-linejoin="round"/>
<path d="M22.0002 19.5998V13.9599C22.0002 12.7599 21.2502 12.5898 20.4802 12.7998L17.5902 13.5899C17.0702 13.7299 16.7002 14.1498 16.7002 14.7498V15.7598V16.4398V20.5698" stroke="#292D32" stroke-width="1.5" stroke-linecap="round" stroke-linejoin="round"/>
<path d="M20.5601 21.0397C21.3554 21.0397 22.0001 20.395 22.0001 19.5997C22.0001 18.8044 21.3554 18.1597 20.5601 18.1597C19.7648 18.1597 19.1201 18.8044 19.1201 19.5997C19.1201 20.395 19.7648 21.0397 20.5601 21.0397Z" stroke="#292D32" stroke-width="1.5" stroke-linecap="round" stroke-linejoin="round"/>
<path d="M16.71 16.4297L22 14.9897" stroke="#292D32" stroke-width="1.5" stroke-linecap="round" stroke-linejoin="round"/>
</svg>
