<svg width="24" height="24" viewBox="0 0 24 24" fill="none" xmlns="http://www.w3.org/2000/svg">
<path d="M10 16.9498H6.21C2.84 16.9498 2 16.1098 2 12.7398V6.73979C2 3.36979 2.84 2.52979 6.21 2.52979H16.74C20.11 2.52979 20.95 3.36979 20.95 6.73979" stroke="#292D32" stroke-width="1.5" stroke-linecap="round" stroke-linejoin="round"/>
<path d="M10 21.4702V16.9502" stroke="#292D32" stroke-width="1.5" stroke-linecap="round" stroke-linejoin="round"/>
<path d="M2 12.9502H10" stroke="#292D32" stroke-width="1.5" stroke-linecap="round" stroke-linejoin="round"/>
<path d="M6.73999 21.4702H9.99999" stroke="#292D32" stroke-width="1.5" stroke-linecap="round" stroke-linejoin="round"/>
<path d="M22 12.7998V18.5098C22 20.8798 21.41 21.4698 19.04 21.4698H15.49C13.12 21.4698 12.53 20.8798 12.53 18.5098V12.7998C12.53 10.4298 13.12 9.83984 15.49 9.83984H19.04C21.41 9.83984 22 10.4298 22 12.7998Z" stroke="#292D32" stroke-width="1.5" stroke-linecap="round" stroke-linejoin="round"/>
<path d="M17.2445 18.25H17.2535" stroke="#292D32" stroke-width="2" stroke-linecap="round" stroke-linejoin="round"/>
</svg>
