<svg width="24" height="24" viewBox="0 0 24 24" fill="none" xmlns="http://www.w3.org/2000/svg">
<path d="M12.0001 9.32C13.1901 9.32 14.1601 8.35 14.1601 7.16C14.1601 5.97 13.1901 5 12.0001 5C10.8101 5 9.84009 5.97 9.84009 7.16C9.84009 8.35 10.8101 9.32 12.0001 9.32Z" stroke="#292D32" stroke-width="1.5" stroke-linecap="round" stroke-linejoin="round"/>
<path d="M6.78988 19.0002C7.97988 19.0002 8.94988 18.0302 8.94988 16.8402C8.94988 15.6502 7.97988 14.6802 6.78988 14.6802C5.59988 14.6802 4.62988 15.6502 4.62988 16.8402C4.62988 18.0302 5.58988 19.0002 6.78988 19.0002Z" stroke="#292D32" stroke-width="1.5" stroke-linecap="round" stroke-linejoin="round"/>
<path d="M17.21 19.0002C18.4 19.0002 19.37 18.0302 19.37 16.8402C19.37 15.6502 18.4 14.6802 17.21 14.6802C16.02 14.6802 15.05 15.6502 15.05 16.8402C15.05 18.0302 16.02 19.0002 17.21 19.0002Z" stroke="#292D32" stroke-width="1.5" stroke-linecap="round" stroke-linejoin="round"/>
</svg>
