<svg width="24" height="24" viewBox="0 0 24 24" fill="none" xmlns="http://www.w3.org/2000/svg">
<path d="M22 15V9C22 4 20 2 15 2H9C4 2 2 4 2 9V15C2 20 4 22 9 22H15C20 22 22 20 22 15Z" stroke="#292D32" stroke-width="1.5" stroke-linecap="round" stroke-linejoin="round"/>
<path d="M7 2.5V21.5" stroke="#292D32" stroke-width="1.5" stroke-linecap="round" stroke-linejoin="round"/>
<path d="M11.47 16.7998C12.2929 16.7998 12.96 16.1327 12.96 15.3098C12.96 14.4869 12.2929 13.8198 11.47 13.8198C10.6471 13.8198 9.97998 14.4869 9.97998 15.3098C9.97998 16.1327 10.6471 16.7998 11.47 16.7998Z" stroke="#292D32" stroke-width="1.5" stroke-linecap="round" stroke-linejoin="round"/>
<path d="M18.43 14.3098V8.47977C18.43 7.23977 17.65 7.06982 16.86 7.27982L13.88 8.08982C13.34 8.23982 12.96 8.66977 12.96 9.28977V10.3298V11.0298V15.2998" stroke="#292D32" stroke-width="1.5" stroke-linecap="round" stroke-linejoin="round"/>
<path d="M16.9299 15.7998C17.7528 15.7998 18.4199 15.1327 18.4199 14.3098C18.4199 13.4869 17.7528 12.8198 16.9299 12.8198C16.107 12.8198 15.4399 13.4869 15.4399 14.3098C15.4399 15.1327 16.107 15.7998 16.9299 15.7998Z" stroke="#292D32" stroke-width="1.5" stroke-linecap="round" stroke-linejoin="round"/>
<path d="M12.96 11.0398L18.43 9.5498" stroke="#292D32" stroke-width="1.5" stroke-linecap="round" stroke-linejoin="round"/>
</svg>
