<svg width="24" height="24" viewBox="0 0 24 24" fill="none" xmlns="http://www.w3.org/2000/svg">
<path d="M5.27991 18.6501L5.84991 16.1801C5.97991 15.6001 5.74991 14.7901 5.32991 14.3701L2.84991 11.8901C1.38991 10.4301 1.85991 8.95014 3.89991 8.61014L7.08991 8.08014C7.61991 7.99014 8.25991 7.52014 8.49991 7.03014L10.2599 3.51014C11.2099 1.60014 12.7699 1.60014 13.7299 3.51014L15.4899 7.03014C15.5999 7.26014 15.8099 7.48014 16.0399 7.67014" stroke="#292D32" stroke-width="1.5" stroke-linecap="round" stroke-linejoin="round"/>
<path d="M20.1 8.60986C22.14 8.94986 22.62 10.4299 21.15 11.8899L18.67 14.3699C18.25 14.7899 18.02 15.5999 18.15 16.1799L18.86 19.2499C19.42 21.6799 18.13 22.6199 15.98 21.3499L12.99 19.5799C12.45 19.2599 11.56 19.2599 11.01 19.5799L8.02002 21.3499" stroke="#292D32" stroke-width="1.5" stroke-linecap="round" stroke-linejoin="round"/>
<path d="M22 2L2 22" stroke="#292D32" stroke-width="1.5" stroke-linecap="round" stroke-linejoin="round"/>
</svg>
