<svg width="62" height="62" viewBox="0 0 62 62" fill="none" xmlns="http://www.w3.org/2000/svg">
<path fill-rule="evenodd" clip-rule="evenodd" d="M12.9296 29.9175L16.7503 31.2556L15.6576 40.0002C15.5103 41.1679 15.9857 42.3769 17.0009 43.0899C19.9898 45.1953 24.862 47.7915 31.0026 47.7915C36.1078 47.8074 41.0763 46.1424 45.1412 43.0537C46.0841 42.3304 46.4897 41.1756 46.3553 40.0777L45.2523 31.2556L54.4748 28.0265C56.5492 27.3031 56.5492 24.3659 54.4748 23.64L34.8414 16.7683C32.3553 15.8982 29.6473 15.8982 27.1612 16.7683L7.52784 23.64C5.45084 24.3633 5.45084 27.3006 7.52784 28.0291L10.2403 28.9771C9.88384 29.4421 9.63326 29.92 9.45759 30.3592C9.33755 30.657 9.24082 30.9636 9.16826 31.2763C8.77115 31.4767 8.43251 31.7762 8.18514 32.1459C7.93776 32.5156 7.79003 32.9429 7.75625 33.3864C7.72248 33.83 7.80379 34.2747 7.99233 34.6776C8.18087 35.0805 8.47024 35.4278 8.83243 35.6861L8.81951 35.73L6.55909 45.9057C6.5088 46.1323 6.51004 46.3673 6.56274 46.5934C6.61543 46.8195 6.71823 47.0308 6.86354 47.2118C7.00885 47.3929 7.19297 47.5389 7.40229 47.6393C7.61161 47.7396 7.8408 47.7916 8.07293 47.7915H12.5938C12.8259 47.7916 13.0551 47.7396 13.2644 47.6393C13.4737 47.5389 13.6578 47.3929 13.8031 47.2118C13.9485 47.0308 14.0512 46.8195 14.1039 46.5934C14.1566 46.3673 14.1579 46.1323 14.1076 45.9057L11.8472 35.7274L11.8368 35.6835C12.174 35.4424 12.4481 35.1238 12.6362 34.7545C12.8243 34.3851 12.9208 33.976 12.9175 33.5616C12.9142 33.1472 12.8112 32.7396 12.6173 32.3733C12.4234 32.0071 12.1442 31.6928 11.8033 31.4571C12.022 30.8458 12.4132 30.311 12.9296 29.9175ZM33.9863 19.2044C32.0529 18.5278 29.9471 18.5278 28.0137 19.2044L9.77534 25.5904C9.72547 25.6085 9.68238 25.6415 9.65193 25.6849C9.62148 25.7284 9.60515 25.7802 9.60515 25.8332C9.60515 25.8863 9.62148 25.938 9.65193 25.9815C9.68238 26.0249 9.72547 26.0579 9.77534 26.076L12.6971 27.1016C13.5754 26.7425 14.9963 26.368 16.5385 26.0089C18.5789 25.5435 20.6279 25.1163 22.6843 24.7275C25.38 24.2105 28.0815 23.7239 30.7882 23.268C31.121 23.2229 31.4582 23.3092 31.7285 23.5085C31.9987 23.7079 32.1807 24.0047 32.2358 24.336C32.2909 24.6673 32.2148 25.007 32.0236 25.2831C31.8325 25.5593 31.5413 25.7501 31.2118 25.8151C30.3955 25.9529 29.5792 26.0933 28.7628 26.2362C27.2723 26.4997 25.2624 26.8614 23.1725 27.2618C21.0826 27.6622 18.9178 28.1065 17.1275 28.525L16.9105 28.5767L28.0137 32.462C29.9471 33.1386 32.0529 33.1386 33.9863 32.462L52.2273 26.076C52.2771 26.0579 52.3202 26.0249 52.3507 25.9815C52.3811 25.938 52.3975 25.8863 52.3975 25.8332C52.3975 25.7802 52.3811 25.7284 52.3507 25.6849C52.3202 25.6415 52.2771 25.6085 52.2273 25.5904L33.9863 19.2044ZM34.8388 34.8981L42.7568 32.1288L43.7901 40.398C43.8098 40.5105 43.7994 40.6261 43.76 40.7332C43.7205 40.8403 43.6533 40.935 43.5653 41.0077C39.9514 43.7489 35.5359 45.2249 31 45.2082C25.5983 45.2082 21.2428 42.9194 18.4863 40.9767C18.3875 40.901 18.3106 40.8003 18.2638 40.6849C18.2171 40.5695 18.202 40.4437 18.2203 40.3205L19.2433 32.1288L27.1612 34.8981C29.6473 35.7682 32.3553 35.7682 34.8414 34.8981M9.36459 45.2082L10.3333 40.8295L11.3073 45.2082H9.36459Z" fill="black"/>
</svg>
